<?xml version="1.0" encoding="iso-8859-1"?>
<!-- Generator: Adobe Illustrator 19.0.0, SVG Export Plug-In . SVG Version: 6.00 Build 0)  -->
<svg version="1.1" id="Layer_1" xmlns="http://www.w3.org/2000/svg" xmlns:xlink="http://www.w3.org/1999/xlink" x="0px" y="0px"
	 viewBox="0 0 400 400" style="enable-background:new 0 0 400 400;" xml:space="preserve">
<g id="XMLID_22_">
	<polygon id="XMLID_23_" style="fill:#1E2E3B;" points="160,65 140,35 0,35 0,105 160,115 320,105 320,65 	"/>
	<rect id="XMLID_24_" y="105" style="fill:#78B9EB;" width="320" height="180"/>
	<polygon id="XMLID_25_" style="fill:#5A8BB0;" points="320,285 0,285 320,105 	"/>
	<g id="XMLID_26_">
		<circle id="XMLID_61_" style="fill:#EEEEEF;" cx="320" cy="285" r="80"/>
		<path id="XMLID_60_" style="fill:#DEDDE0;" d="M320,205c44.183,0,80,35.817,80,80s-35.817,80-80,80"/>
	</g>
	<path id="XMLID_27_" style="fill:#FF5023;" d="M342.728,245c-9.489,0-17.842,5.333-22.728,13.419
		C315.114,250.333,306.762,245,297.272,245C282.211,245,270,258.432,270,275c0,30,50,60,50,60s50-30,50-60
		C370,258.432,357.789,245,342.728,245z"/>
	<path id="XMLID_28_" style="fill:#A2001D;" d="M342.728,245c-9.489,0-17.842,5.333-22.728,13.419c0,35.248,0,76.581,0,76.581
		s50-30,50-60C370,258.432,357.789,245,342.728,245z"/>
</g>
<g>
</g>
<g>
</g>
<g>
</g>
<g>
</g>
<g>
</g>
<g>
</g>
<g>
</g>
<g>
</g>
<g>
</g>
<g>
</g>
<g>
</g>
<g>
</g>
<g>
</g>
<g>
</g>
<g>
</g>
</svg>
