<?xml version="1.0" encoding="iso-8859-1"?>
<!-- Generator: Adobe Illustrator 19.0.0, SVG Export Plug-In . SVG Version: 6.00 Build 0)  -->
<svg version="1.1" id="Layer_1" xmlns="http://www.w3.org/2000/svg" xmlns:xlink="http://www.w3.org/1999/xlink" x="0px" y="0px"
	 viewBox="0 0 512 512" style="enable-background:new 0 0 512 512;" xml:space="preserve">
<g>
	<g>
		<g>
			<path d="M468.701,104.296H221.235V84.385c0-23.876-19.423-43.299-43.299-43.299H43.299C19.423,41.086,0,60.51,0,84.385v343.23
				c0,23.876,19.423,43.299,43.299,43.299h425.402c23.876,0,43.299-19.423,43.299-43.299v-280.02
				C512,123.719,492.577,104.296,468.701,104.296z M25.284,84.385c0-9.933,8.082-18.015,18.015-18.015h134.637
				c9.933,0,18.015,8.082,18.015,18.015v19.911H25.284V84.385z M486.716,427.615c0,9.933-8.082,18.015-18.015,18.015H43.299
				c-9.933,0-18.015-8.082-18.015-18.015V129.58h443.417c9.933,0,18.015,8.082,18.015,18.015V427.615z"/>
			<path d="M373.991,277.877h-24.045c-5.648-42.182-39.122-75.656-81.304-81.304v-24.045c0-6.982-5.66-12.642-12.642-12.642
				c-6.982,0-12.642,5.66-12.642,12.642v24.045c-42.182,5.648-75.656,39.122-81.304,81.304h-24.045
				c-6.982,0-12.642,5.66-12.642,12.642s5.66,12.642,12.642,12.642h24.045c5.648,42.182,39.122,75.656,81.304,81.304v24.045
				c0,6.982,5.66,12.642,12.642,12.642c6.982,0,12.642-5.66,12.642-12.642v-24.045c42.182-5.648,75.656-39.122,81.304-81.304h24.045
				c6.982,0,12.642-5.66,12.642-12.642C386.633,283.537,380.974,277.877,373.991,277.877z M310.781,303.162h13.576
				c-5.207,28.218-27.496,50.507-55.716,55.716v-13.576c0-6.982-5.66-12.642-12.642-12.642c-6.982,0-12.642,5.66-12.642,12.642
				v13.576c-28.219-5.207-50.508-27.498-55.716-55.716h13.576c6.982,0,12.642-5.66,12.642-12.642c0-6.982-5.66-12.642-12.642-12.642
				h-13.576c5.207-28.219,27.498-50.508,55.716-55.716v13.576c0,6.982,5.66,12.642,12.642,12.642c6.982,0,12.642-5.66,12.642-12.642
				v-13.576c28.219,5.207,50.508,27.498,55.716,55.716h-13.576c-6.982,0-12.642,5.66-12.642,12.642
				C298.14,297.502,303.799,303.162,310.781,303.162z"/>
		</g>
	</g>
</g>
<g>
</g>
<g>
</g>
<g>
</g>
<g>
</g>
<g>
</g>
<g>
</g>
<g>
</g>
<g>
</g>
<g>
</g>
<g>
</g>
<g>
</g>
<g>
</g>
<g>
</g>
<g>
</g>
<g>
</g>
</svg>
